<?xml version='1.0' encoding='utf-8'?>
<svg xmlns="http://www.w3.org/2000/svg" viewBox="0 0 234.72 236.21"> <g transform="matrix(1.2162 0 0 1.2162 -357.46 -340.11)" fill="#fff" stroke="#000" stroke-linecap="round" stroke-linejoin="round"> <path d="m451.94 318.42c6.3173-1.6786 5.8364 4.8356 2.2089 6.4382l-8.3895-3.6136z" stroke-dashoffset="3.003" stroke-width=".57554"/> <path d="m435.18 313.42c6.3173-1.6786 5.8364 4.8356 2.2089 6.4382l-8.3895-3.6136z" stroke-dashoffset="3.003" stroke-width=".57554"/> <path d="m418.55 308.49c6.3173-1.6786 5.8364 4.8356 2.2089 6.4382l-8.3895-3.6136z" stroke-dashoffset="3.003" stroke-width=".57554"/> <path d="m402.37 303.39c6.3173-1.6786 5.8364 4.8356 2.2089 6.4382l-8.3895-3.6136z" stroke-dashoffset="3.003" stroke-width=".57554"/> <path d="m386.18 298.55c6.5697-1.8048 6.0525 4.7276 2.2089 6.4382l-8.3895-3.6136z" stroke-dashoffset="3.003" stroke-width=".57554"/> <path d="m370.17 293.89c6.5697-1.8048 6.0525 4.7276 2.2089 6.4382l-8.3895-3.6136z" stroke-dashoffset="3.003" stroke-width=".57554"/> <path d="m354.08 289.05c6.5697-1.8048 6.0525 4.7276 2.2089 6.4382l-8.3895-3.6136z" stroke-dashoffset="3.003" stroke-width=".57554"/> <path d="m338.51 284.21c6.5697-1.8048 6.0525 4.7276 2.2089 6.4382l-8.3895-3.6136z" stroke-dashoffset="3.003" stroke-width=".57554"/> <path d="m316.95 280.38c0.99514-3.9806-22.391 129.12-22.391 129.12l150.27 63.689 26.869-146.29z" stroke-dashoffset="3.003" stroke-width="1.3155"/> <path d="m322.92 288.09c-3.9002 31.879-10.341 65.404-16.917 99.017l131.86 54.733c11.223-36.019 16.789-74.866 22.888-113.45z" stroke-dashoffset="3.003" stroke-width=".8222"/> <g transform="translate(.70367 -2.111)" stroke-dashoffset="1.5" stroke-width=".57554"> <path d="m326.16 292.45-0.01 3.637 12.704 4.087 0.36215-4.1437z"/> <path d="m341.44 286.17-11.51-3.1487c-4.177 1.1865-5.4772 7.1801-1.6963 11.205l9.561 3.388c-4.3099-5.0614-1.7679-9.46 3.6448-11.444z"/> </g> <g transform="translate(17.372 3.1135)" stroke-dashoffset="1.5" stroke-width=".57554"> <path d="m326.16 292.45-0.25854 3.1394 12.953 4.5846 0.36215-4.1437z"/> <path d="m340.94 286.17-10.141-3.1487c-4.177 1.1865-6.348 7.1801-2.5671 11.205l9.561 3.388c-4.3099-5.0614-2.2655-9.46 3.1473-11.444z"/> </g> <g transform="translate(32.797 7.5916)" stroke-dashoffset="1.5" stroke-width=".57554"> <path d="m326.16 292.45-0.25854 3.637 12.953 4.087 0.36215-4.1437z"/> <path d="m340.94 286.17-10.587-2.8484c-4.177 1.1865-5.9019 6.8798-2.121 10.904l9.561 3.388c-4.3099-5.0614-2.2655-9.46 3.1473-11.444z"/> </g> <g transform="translate(49.217 12.567)" stroke-dashoffset="1.5" stroke-width=".57554"> <path d="m326.16 292.45-0.25854 3.3882 12.953 4.3358 0.36215-4.1437z"/> <path d="m340.77 286.08-10.059-2.915c-4.177 1.1865-6.2538 7.0344-2.4729 11.059l9.561 3.388c-4.3099-5.0614-2.4414-9.548 2.9714-11.532z"/> </g> <g transform="translate(65.212 17.279)" stroke-dashoffset="1.5" stroke-width=".57554"> <path d="m326.16 292.45-0.25854 3.637 12.953 4.087 0.36215-4.1437z"/> <path d="m340.94 286.17-10.163-3.1487c-4.177 1.1865-6.3266 7.1801-2.5457 11.205l9.561 3.388c-4.3099-5.0614-2.2655-9.46 3.1473-11.444z"/> </g> <g transform="translate(81.061 22.768)" stroke-dashoffset="1.5" stroke-width=".57554"> <path d="m326.16 292.45-0.75612 3.3882 13.451 4.3358 0.36215-4.1437z"/> <path d="m340.77 285.64-10.587-3.1788c-4.177 1.1865-5.726 7.738-1.9451 11.762l9.561 3.388c-4.3099-5.0614-2.4414-9.9878 2.9714-11.972z"/> </g> <g transform="translate(96.984 27.246)" stroke-dashoffset="1.5" stroke-width=".57554"> <path d="m326.16 292.45-0.33141 3.2424 13.026 4.4815 0.36215-4.1437z"/> <path d="m341.12 285.99-10.411-3.1788c-4.177 1.1865-6.2538 7.3862-2.4729 11.411l9.561 3.388c-4.3099-5.0614-2.0896-9.6359 3.3232-11.62z"/> </g> <g transform="translate(113.4 31.973)" stroke-dashoffset="1.5" stroke-width=".57554"> <path d="m326.16 292.45-0.50733 3.5943 13.202 4.1297 0.36215-4.1437z"/> <path d="m340.94 286.17-10.411-3.0029c-4.177 1.1865-6.0778 7.0344-2.297 11.059l9.561 3.388c-4.3099-5.0614-2.2655-9.46 3.1473-11.444z"/> </g> <path d="m409.4 330.31-2.9668 16.201 14.437 5.274 2.9702-16.816z" stroke-dashoffset="3.003" stroke-width=".8222"/> <path d="m428.74 336.74-2.9667 16.543 14.437 5.274 2.9702-16.816z" stroke-dashoffset="3.003" stroke-width=".8222"/> <path d="m391.85 324.36-3.0194 16.727 14.147 4.4062 2.9702-16.816z" stroke-dashoffset="3.003" stroke-width=".8222"/> <path d="m372.8 317.94-2.9667 16.543 14.779 4.2483 2.9702-16.474z" stroke-dashoffset="3.003" stroke-width=".8222"/> <path d="m406.02 351.24-2.9668 16.543 14.147 4.6954 3.2595-16.237z" stroke-dashoffset="3.003" stroke-width=".8222"/> <path d="m425.31 357.91-2.9668 16.885 14.489 5.0374 2.9702-16.816z" stroke-dashoffset="3.003" stroke-width=".8222"/> <path d="m388.28 345.44-3.1224 16.058 14.437 5.274 2.9702-16.816z" stroke-dashoffset="3.003" stroke-width=".8222"/> <path d="m369.16 338.71-2.8736 16.201 14.934 5.0878 2.9702-16.816z" stroke-dashoffset="3.003" stroke-width=".8222"/> <path d="m402.12 373.31-3.4921 16.84 13.542 4.1879 3.654-16.132z" stroke-dashoffset="3.003" stroke-width=".8222"/> <path d="m420.62 379.97-3.5453 15.859 14.437 5.274 3.5488-16.527z" stroke-dashoffset="3.003" stroke-width=".8222"/> <path d="m383.89 367.2-3.3613 16.596 13.753 4.2483 3.5488-16.816z" stroke-dashoffset="3.003" stroke-width=".8222"/> <path d="m364.43 359.8-2.9667 17.227 14.147 4.8268 3.5488-17.105z" stroke-dashoffset="3.003" stroke-width=".8222"/> <path d="m379.13 387.8-4.4658 17.622 14.095 4.9321 4.2326-17.842z" stroke-dashoffset="3.003" stroke-width=".8222"/> <path d="m359.55 381.24-3.8346 16.91 14.673 4.7487 3.654-17.158z" stroke-dashoffset="3.003" stroke-width=".8222"/> <path d="m348.81 332.64-2.6775 16.833 14.779 4.2483 2.6809-16.527z" stroke-dashoffset="3.003" stroke-width=".8222"/> <path d="m344.54 354.63-2.8964 16.061 14.437 4.6954 2.9702-16.237z" stroke-dashoffset="3.003" stroke-width=".8222"/> <path d="m340.75 375.48-3.5453 15.859 13.115 5.0999 4.1678-16.735z" stroke-dashoffset="3.003" stroke-width=".8222"/> <path d="m322.72 368.31-3.2034 16.254 13.132 4.6833 3.5083-16.359z" stroke-dashoffset="3.003" stroke-width=".8222"/> <path d="m325.95 348.4-2.8615 15.641 13.937 4.5724 2.6809-16.237z" stroke-dashoffset="3.003" stroke-width=".8222"/> <path d="m329.28 326.83-2.6248 16.491 14.437 4.5902 2.9702-16.816z" stroke-dashoffset="3.003" stroke-width=".8222"/> <path d="m397.37 394.82-3.9924 17.227 13.069 5.274 4.0485-17.947z" stroke-dashoffset="3.003" stroke-width=".8222"/> <path d="m445.42 472.19c2.111-3.5184 23.925-39.757 23.925-39.757l16.888 5.2775-14.777-110.83z" stroke-dashoffset="3.003" stroke-width="1.3155"/> <path d="m469.35 432.43-15.644-7.8793" stroke-dashoffset="3.003" stroke-width=".8222"/> </g> </svg>